<mxfile host="Electron" modified="2023-12-04T14:49:41.681Z" agent="Mozilla/5.0 (Windows NT 10.0; Win64; x64) AppleWebKit/537.36 (KHTML, like Gecko) draw.io/22.1.2 Chrome/114.0.5735.289 Electron/25.9.4 Safari/537.36" etag="HaGY2GvLZNm7gM9KNlp4" version="22.1.2" type="device" pages="2">
  <diagram name="Architecture" id="kJxCRIZKp0JYJdXJ1R2k">
    <mxGraphModel dx="2074" dy="1196" grid="1" gridSize="10" guides="1" tooltips="1" connect="1" arrows="1" fold="1" page="1" pageScale="1" pageWidth="850" pageHeight="1100" math="0" shadow="0">
      <root>
        <mxCell id="0" />
        <mxCell id="1" parent="0" />
        <mxCell id="XLgafhoLQjkeKdRJne6C-6" style="edgeStyle=orthogonalEdgeStyle;rounded=0;orthogonalLoop=1;jettySize=auto;html=1;" edge="1" parent="1" source="XLgafhoLQjkeKdRJne6C-2" target="XLgafhoLQjkeKdRJne6C-3">
          <mxGeometry relative="1" as="geometry" />
        </mxCell>
        <mxCell id="XLgafhoLQjkeKdRJne6C-2" value="Telegram client" style="sketch=0;outlineConnect=0;fontColor=#232F3E;gradientColor=none;fillColor=#232F3D;strokeColor=none;dashed=0;verticalLabelPosition=bottom;verticalAlign=top;align=center;html=1;fontSize=12;fontStyle=0;aspect=fixed;pointerEvents=1;shape=mxgraph.aws4.client;" vertex="1" parent="1">
          <mxGeometry x="386.5" y="195" width="78" height="76" as="geometry" />
        </mxCell>
        <mxCell id="XLgafhoLQjkeKdRJne6C-9" style="edgeStyle=orthogonalEdgeStyle;rounded=0;orthogonalLoop=1;jettySize=auto;html=1;" edge="1" parent="1" source="XLgafhoLQjkeKdRJne6C-3" target="XLgafhoLQjkeKdRJne6C-8">
          <mxGeometry relative="1" as="geometry" />
        </mxCell>
        <mxCell id="XLgafhoLQjkeKdRJne6C-3" value="Application Load&lt;br&gt;Balancer" style="sketch=0;outlineConnect=0;fontColor=#232F3E;gradientColor=none;fillColor=#8C4FFF;strokeColor=none;dashed=0;verticalLabelPosition=bottom;verticalAlign=top;align=center;html=1;fontSize=12;fontStyle=0;aspect=fixed;pointerEvents=1;shape=mxgraph.aws4.application_load_balancer;container=0;" vertex="1" parent="1">
          <mxGeometry x="386.5" y="405" width="78" height="78" as="geometry" />
        </mxCell>
        <mxCell id="XLgafhoLQjkeKdRJne6C-5" style="edgeStyle=orthogonalEdgeStyle;rounded=0;orthogonalLoop=1;jettySize=auto;html=1;" edge="1" parent="1" source="XLgafhoLQjkeKdRJne6C-4" target="XLgafhoLQjkeKdRJne6C-3">
          <mxGeometry relative="1" as="geometry" />
        </mxCell>
        <mxCell id="XLgafhoLQjkeKdRJne6C-4" value="AWS WAF" style="sketch=0;points=[[0,0,0],[0.25,0,0],[0.5,0,0],[0.75,0,0],[1,0,0],[0,1,0],[0.25,1,0],[0.5,1,0],[0.75,1,0],[1,1,0],[0,0.25,0],[0,0.5,0],[0,0.75,0],[1,0.25,0],[1,0.5,0],[1,0.75,0]];outlineConnect=0;fontColor=#232F3E;fillColor=#DD344C;strokeColor=#ffffff;dashed=0;verticalLabelPosition=bottom;verticalAlign=top;align=center;html=1;fontSize=12;fontStyle=0;aspect=fixed;shape=mxgraph.aws4.resourceIcon;resIcon=mxgraph.aws4.waf;container=0;" vertex="1" parent="1">
          <mxGeometry x="526.5" y="405" width="78" height="78" as="geometry" />
        </mxCell>
        <mxCell id="XLgafhoLQjkeKdRJne6C-15" style="edgeStyle=orthogonalEdgeStyle;rounded=0;orthogonalLoop=1;jettySize=auto;html=1;" edge="1" parent="1" source="XLgafhoLQjkeKdRJne6C-8" target="XLgafhoLQjkeKdRJne6C-10">
          <mxGeometry relative="1" as="geometry" />
        </mxCell>
        <mxCell id="XLgafhoLQjkeKdRJne6C-16" style="edgeStyle=orthogonalEdgeStyle;rounded=0;orthogonalLoop=1;jettySize=auto;html=1;" edge="1" parent="1" source="XLgafhoLQjkeKdRJne6C-8" target="XLgafhoLQjkeKdRJne6C-13">
          <mxGeometry relative="1" as="geometry">
            <Array as="points">
              <mxPoint x="426" y="735" />
              <mxPoint x="566" y="735" />
            </Array>
          </mxGeometry>
        </mxCell>
        <mxCell id="XLgafhoLQjkeKdRJne6C-17" style="edgeStyle=orthogonalEdgeStyle;rounded=0;orthogonalLoop=1;jettySize=auto;html=1;" edge="1" parent="1" source="XLgafhoLQjkeKdRJne6C-8" target="XLgafhoLQjkeKdRJne6C-14">
          <mxGeometry relative="1" as="geometry">
            <Array as="points">
              <mxPoint x="426" y="735" />
              <mxPoint x="285" y="735" />
            </Array>
          </mxGeometry>
        </mxCell>
        <mxCell id="XLgafhoLQjkeKdRJne6C-8" value="ECS Fargate" style="sketch=0;points=[[0,0,0],[0.25,0,0],[0.5,0,0],[0.75,0,0],[1,0,0],[0,1,0],[0.25,1,0],[0.5,1,0],[0.75,1,0],[1,1,0],[0,0.25,0],[0,0.5,0],[0,0.75,0],[1,0.25,0],[1,0.5,0],[1,0.75,0]];outlineConnect=0;fontColor=#232F3E;fillColor=#ED7100;strokeColor=#ffffff;dashed=0;verticalLabelPosition=bottom;verticalAlign=top;align=center;html=1;fontSize=12;fontStyle=0;aspect=fixed;shape=mxgraph.aws4.resourceIcon;resIcon=mxgraph.aws4.ecs;container=0;" vertex="1" parent="1">
          <mxGeometry x="387" y="595" width="78" height="78" as="geometry" />
        </mxCell>
        <mxCell id="XLgafhoLQjkeKdRJne6C-10" value="Locations" style="sketch=0;points=[[0,0,0],[0.25,0,0],[0.5,0,0],[0.75,0,0],[1,0,0],[0,1,0],[0.25,1,0],[0.5,1,0],[0.75,1,0],[1,1,0],[0,0.25,0],[0,0.5,0],[0,0.75,0],[1,0.25,0],[1,0.5,0],[1,0.75,0]];outlineConnect=0;fontColor=#232F3E;fillColor=#C925D1;strokeColor=#ffffff;dashed=0;verticalLabelPosition=bottom;verticalAlign=top;align=center;html=1;fontSize=12;fontStyle=0;aspect=fixed;shape=mxgraph.aws4.resourceIcon;resIcon=mxgraph.aws4.dynamodb;container=0;" vertex="1" parent="1">
          <mxGeometry x="387" y="785" width="78" height="78" as="geometry" />
        </mxCell>
        <mxCell id="XLgafhoLQjkeKdRJne6C-13" value="User Sessions" style="sketch=0;points=[[0,0,0],[0.25,0,0],[0.5,0,0],[0.75,0,0],[1,0,0],[0,1,0],[0.25,1,0],[0.5,1,0],[0.75,1,0],[1,1,0],[0,0.25,0],[0,0.5,0],[0,0.75,0],[1,0.25,0],[1,0.5,0],[1,0.75,0]];outlineConnect=0;fontColor=#232F3E;fillColor=#C925D1;strokeColor=#ffffff;dashed=0;verticalLabelPosition=bottom;verticalAlign=top;align=center;html=1;fontSize=12;fontStyle=0;aspect=fixed;shape=mxgraph.aws4.resourceIcon;resIcon=mxgraph.aws4.dynamodb;container=0;" vertex="1" parent="1">
          <mxGeometry x="527" y="785" width="78" height="78" as="geometry" />
        </mxCell>
        <mxCell id="XLgafhoLQjkeKdRJne6C-14" value="MRT" style="sketch=0;points=[[0,0,0],[0.25,0,0],[0.5,0,0],[0.75,0,0],[1,0,0],[0,1,0],[0.25,1,0],[0.5,1,0],[0.75,1,0],[1,1,0],[0,0.25,0],[0,0.5,0],[0,0.75,0],[1,0.25,0],[1,0.5,0],[1,0.75,0]];outlineConnect=0;fontColor=#232F3E;fillColor=#C925D1;strokeColor=#ffffff;dashed=0;verticalLabelPosition=bottom;verticalAlign=top;align=center;html=1;fontSize=12;fontStyle=0;aspect=fixed;shape=mxgraph.aws4.resourceIcon;resIcon=mxgraph.aws4.dynamodb;container=0;" vertex="1" parent="1">
          <mxGeometry x="246" y="785" width="78" height="78" as="geometry" />
        </mxCell>
        <mxCell id="X0nQF7mfTcgoN8rDK4ip-1" value="IAM Role" style="sketch=0;outlineConnect=0;fontColor=#232F3E;gradientColor=none;fillColor=#DD344C;strokeColor=none;dashed=0;verticalLabelPosition=bottom;verticalAlign=top;align=center;html=1;fontSize=12;fontStyle=0;aspect=fixed;pointerEvents=1;shape=mxgraph.aws4.role;" vertex="1" parent="1">
          <mxGeometry x="475.5" y="585" width="42.55" height="24" as="geometry" />
        </mxCell>
        <mxCell id="hXbGZgq6adrHK1ABpv1T-1" value="AWS Cloud" style="points=[[0,0],[0.25,0],[0.5,0],[0.75,0],[1,0],[1,0.25],[1,0.5],[1,0.75],[1,1],[0.75,1],[0.5,1],[0.25,1],[0,1],[0,0.75],[0,0.5],[0,0.25]];outlineConnect=0;gradientColor=none;html=1;whiteSpace=wrap;fontSize=12;fontStyle=0;container=1;pointerEvents=0;collapsible=0;recursiveResize=0;shape=mxgraph.aws4.group;grIcon=mxgraph.aws4.group_aws_cloud;strokeColor=#232F3E;fillColor=none;verticalAlign=top;align=left;spacingLeft=30;fontColor=#232F3E;dashed=0;" vertex="1" parent="1">
          <mxGeometry x="194" y="353" width="461.5" height="552" as="geometry" />
        </mxCell>
      </root>
    </mxGraphModel>
  </diagram>
  <diagram id="lLH8CQ7jN1MkWJCLUH48" name="CICD Pipeline">
    <mxGraphModel dx="2074" dy="1196" grid="1" gridSize="10" guides="1" tooltips="1" connect="1" arrows="1" fold="1" page="1" pageScale="1" pageWidth="850" pageHeight="1100" math="0" shadow="0">
      <root>
        <mxCell id="0" />
        <mxCell id="1" parent="0" />
        <mxCell id="rzjZ1oIlxsOGwzyPN0T8-1" value="Github" style="dashed=0;outlineConnect=0;html=1;align=center;labelPosition=center;verticalLabelPosition=bottom;verticalAlign=top;shape=mxgraph.weblogos.github" vertex="1" parent="1">
          <mxGeometry x="320" y="516" width="75" height="75" as="geometry" />
        </mxCell>
        <mxCell id="UMG9OIP_-6pNOpzAxVH5-6" style="edgeStyle=orthogonalEdgeStyle;rounded=0;orthogonalLoop=1;jettySize=auto;html=1;" edge="1" parent="1" source="rzjZ1oIlxsOGwzyPN0T8-2" target="rzjZ1oIlxsOGwzyPN0T8-3">
          <mxGeometry relative="1" as="geometry" />
        </mxCell>
        <mxCell id="UMG9OIP_-6pNOpzAxVH5-7" value="Container image&amp;nbsp;&lt;br&gt;built and pushed" style="edgeLabel;html=1;align=center;verticalAlign=middle;resizable=0;points=[];" vertex="1" connectable="0" parent="UMG9OIP_-6pNOpzAxVH5-6">
          <mxGeometry x="-0.0164" y="-1" relative="1" as="geometry">
            <mxPoint as="offset" />
          </mxGeometry>
        </mxCell>
        <mxCell id="rzjZ1oIlxsOGwzyPN0T8-2" value="AWS CodeBuild" style="sketch=0;points=[[0,0,0],[0.25,0,0],[0.5,0,0],[0.75,0,0],[1,0,0],[0,1,0],[0.25,1,0],[0.5,1,0],[0.75,1,0],[1,1,0],[0,0.25,0],[0,0.5,0],[0,0.75,0],[1,0.25,0],[1,0.5,0],[1,0.75,0]];outlineConnect=0;fontColor=#232F3E;fillColor=#C925D1;strokeColor=#ffffff;dashed=0;verticalLabelPosition=bottom;verticalAlign=top;align=center;html=1;fontSize=12;fontStyle=0;aspect=fixed;shape=mxgraph.aws4.resourceIcon;resIcon=mxgraph.aws4.codebuild;" vertex="1" parent="1">
          <mxGeometry x="510" y="515" width="78" height="78" as="geometry" />
        </mxCell>
        <mxCell id="UMG9OIP_-6pNOpzAxVH5-8" style="edgeStyle=orthogonalEdgeStyle;rounded=0;orthogonalLoop=1;jettySize=auto;html=1;" edge="1" parent="1" source="rzjZ1oIlxsOGwzyPN0T8-3" target="rzjZ1oIlxsOGwzyPN0T8-4">
          <mxGeometry relative="1" as="geometry" />
        </mxCell>
        <mxCell id="rzjZ1oIlxsOGwzyPN0T8-3" value="Amazon ECR" style="sketch=0;points=[[0,0,0],[0.25,0,0],[0.5,0,0],[0.75,0,0],[1,0,0],[0,1,0],[0.25,1,0],[0.5,1,0],[0.75,1,0],[1,1,0],[0,0.25,0],[0,0.5,0],[0,0.75,0],[1,0.25,0],[1,0.5,0],[1,0.75,0]];outlineConnect=0;fontColor=#232F3E;fillColor=#ED7100;strokeColor=#ffffff;dashed=0;verticalLabelPosition=bottom;verticalAlign=top;align=center;html=1;fontSize=12;fontStyle=0;aspect=fixed;shape=mxgraph.aws4.resourceIcon;resIcon=mxgraph.aws4.ecr;" vertex="1" parent="1">
          <mxGeometry x="760" y="516" width="78" height="78" as="geometry" />
        </mxCell>
        <mxCell id="UMG9OIP_-6pNOpzAxVH5-9" style="edgeStyle=orthogonalEdgeStyle;rounded=0;orthogonalLoop=1;jettySize=auto;html=1;" edge="1" parent="1" source="rzjZ1oIlxsOGwzyPN0T8-4" target="rzjZ1oIlxsOGwzyPN0T8-5">
          <mxGeometry relative="1" as="geometry" />
        </mxCell>
        <mxCell id="UMG9OIP_-6pNOpzAxVH5-10" value="Deploys new &lt;br&gt;version" style="edgeLabel;html=1;align=center;verticalAlign=middle;resizable=0;points=[];" vertex="1" connectable="0" parent="UMG9OIP_-6pNOpzAxVH5-9">
          <mxGeometry x="-0.1818" y="1" relative="1" as="geometry">
            <mxPoint as="offset" />
          </mxGeometry>
        </mxCell>
        <mxCell id="rzjZ1oIlxsOGwzyPN0T8-4" value="Amazon ECS" style="sketch=0;points=[[0,0,0],[0.25,0,0],[0.5,0,0],[0.75,0,0],[1,0,0],[0,1,0],[0.25,1,0],[0.5,1,0],[0.75,1,0],[1,1,0],[0,0.25,0],[0,0.5,0],[0,0.75,0],[1,0.25,0],[1,0.5,0],[1,0.75,0]];outlineConnect=0;fontColor=#232F3E;fillColor=#ED7100;strokeColor=#ffffff;dashed=0;verticalLabelPosition=bottom;verticalAlign=top;align=center;html=1;fontSize=12;fontStyle=0;aspect=fixed;shape=mxgraph.aws4.resourceIcon;resIcon=mxgraph.aws4.ecs;" vertex="1" parent="1">
          <mxGeometry x="950" y="516" width="78" height="78" as="geometry" />
        </mxCell>
        <mxCell id="rzjZ1oIlxsOGwzyPN0T8-5" value="ECS Fargate" style="sketch=0;points=[[0,0,0],[0.25,0,0],[0.5,0,0],[0.75,0,0],[1,0,0],[0,1,0],[0.25,1,0],[0.5,1,0],[0.75,1,0],[1,1,0],[0,0.25,0],[0,0.5,0],[0,0.75,0],[1,0.25,0],[1,0.5,0],[1,0.75,0]];outlineConnect=0;fontColor=#232F3E;fillColor=#ED7100;strokeColor=#ffffff;dashed=0;verticalLabelPosition=bottom;verticalAlign=top;align=center;html=1;fontSize=12;fontStyle=0;aspect=fixed;shape=mxgraph.aws4.resourceIcon;resIcon=mxgraph.aws4.fargate;" vertex="1" parent="1">
          <mxGeometry x="1160" y="516" width="78" height="78" as="geometry" />
        </mxCell>
        <mxCell id="UMG9OIP_-6pNOpzAxVH5-11" style="edgeStyle=orthogonalEdgeStyle;rounded=0;orthogonalLoop=1;jettySize=auto;html=1;" edge="1" parent="1" source="rzjZ1oIlxsOGwzyPN0T8-6" target="rzjZ1oIlxsOGwzyPN0T8-5">
          <mxGeometry relative="1" as="geometry" />
        </mxCell>
        <mxCell id="UMG9OIP_-6pNOpzAxVH5-12" value="Pulls API token" style="edgeLabel;html=1;align=center;verticalAlign=middle;resizable=0;points=[];" vertex="1" connectable="0" parent="UMG9OIP_-6pNOpzAxVH5-11">
          <mxGeometry x="-0.0179" relative="1" as="geometry">
            <mxPoint as="offset" />
          </mxGeometry>
        </mxCell>
        <mxCell id="rzjZ1oIlxsOGwzyPN0T8-6" value="AWS Secrets Manager" style="sketch=0;points=[[0,0,0],[0.25,0,0],[0.5,0,0],[0.75,0,0],[1,0,0],[0,1,0],[0.25,1,0],[0.5,1,0],[0.75,1,0],[1,1,0],[0,0.25,0],[0,0.5,0],[0,0.75,0],[1,0.25,0],[1,0.5,0],[1,0.75,0]];outlineConnect=0;fontColor=#232F3E;fillColor=#DD344C;strokeColor=#ffffff;dashed=0;verticalLabelPosition=bottom;verticalAlign=top;align=center;html=1;fontSize=12;fontStyle=0;aspect=fixed;shape=mxgraph.aws4.resourceIcon;resIcon=mxgraph.aws4.secrets_manager;" vertex="1" parent="1">
          <mxGeometry x="1160" y="326" width="78" height="78" as="geometry" />
        </mxCell>
        <mxCell id="rzjZ1oIlxsOGwzyPN0T8-7" value="" style="sketch=0;points=[[0,0,0],[0.25,0,0],[0.5,0,0],[0.75,0,0],[1,0,0],[0,1,0],[0.25,1,0],[0.5,1,0],[0.75,1,0],[1,1,0],[0,0.25,0],[0,0.5,0],[0,0.75,0],[1,0.25,0],[1,0.5,0],[1,0.75,0]];outlineConnect=0;fontColor=#232F3E;fillColor=#C925D1;strokeColor=#ffffff;dashed=0;verticalLabelPosition=bottom;verticalAlign=top;align=center;html=1;fontSize=12;fontStyle=0;aspect=fixed;shape=mxgraph.aws4.resourceIcon;resIcon=mxgraph.aws4.codepipeline;" vertex="1" parent="1">
          <mxGeometry x="520" y="436" width="40" height="40" as="geometry" />
        </mxCell>
        <mxCell id="rzjZ1oIlxsOGwzyPN0T8-9" value="Orchestrated by AWS Code Pipeline" style="fillColor=none;strokeColor=#5A6C86;dashed=1;verticalAlign=top;fontStyle=0;fontColor=#5A6C86;whiteSpace=wrap;html=1;" vertex="1" parent="1">
          <mxGeometry x="250" y="440" width="830" height="230" as="geometry" />
        </mxCell>
        <mxCell id="UMG9OIP_-6pNOpzAxVH5-2" style="edgeStyle=orthogonalEdgeStyle;rounded=0;orthogonalLoop=1;jettySize=auto;html=1;" edge="1" parent="1" source="UMG9OIP_-6pNOpzAxVH5-1" target="rzjZ1oIlxsOGwzyPN0T8-1">
          <mxGeometry relative="1" as="geometry" />
        </mxCell>
        <mxCell id="UMG9OIP_-6pNOpzAxVH5-3" value="Code merged" style="edgeLabel;html=1;align=center;verticalAlign=middle;resizable=0;points=[];" vertex="1" connectable="0" parent="UMG9OIP_-6pNOpzAxVH5-2">
          <mxGeometry x="-0.0667" y="3" relative="1" as="geometry">
            <mxPoint x="1" as="offset" />
          </mxGeometry>
        </mxCell>
        <mxCell id="UMG9OIP_-6pNOpzAxVH5-1" value="Code" style="sketch=0;outlineConnect=0;fontColor=#232F3E;gradientColor=none;fillColor=#232F3D;strokeColor=none;dashed=0;verticalLabelPosition=bottom;verticalAlign=top;align=center;html=1;fontSize=12;fontStyle=0;aspect=fixed;pointerEvents=1;shape=mxgraph.aws4.logs;" vertex="1" parent="1">
          <mxGeometry x="329" y="696" width="57" height="78" as="geometry" />
        </mxCell>
        <mxCell id="UMG9OIP_-6pNOpzAxVH5-4" style="edgeStyle=orthogonalEdgeStyle;rounded=0;orthogonalLoop=1;jettySize=auto;html=1;entryX=0;entryY=0.5;entryDx=0;entryDy=0;entryPerimeter=0;" edge="1" parent="1" source="rzjZ1oIlxsOGwzyPN0T8-1" target="rzjZ1oIlxsOGwzyPN0T8-2">
          <mxGeometry relative="1" as="geometry" />
        </mxCell>
      </root>
    </mxGraphModel>
  </diagram>
</mxfile>
